<?xml version="1.0" standalone="no"?>
<!DOCTYPE svg PUBLIC "-//W3C//DTD SVG 20010904//EN"
 "http://www.w3.org/TR/2001/REC-SVG-20010904/DTD/svg10.dtd">
<svg version="1.0" xmlns="http://www.w3.org/2000/svg"
 width="128.000000pt" height="128.000000pt" viewBox="0 0 128.000000 128.000000"
 preserveAspectRatio="xMidYMid meet">
<metadata>
Created by potrace 1.11, written by Peter Selinger 2001-2013
</metadata>
<g transform="translate(0.000000,128.000000) scale(0.100000,-0.100000)"
fill="#000000" stroke="none">
<path d="M582 1195 c0 -22 3 -49 8 -60 l9 -20 0 20 c0 11 -4 38 -8 60 l-9 40
0 -40z"/>
<path d="M619 1228 c-5 -14 -2 -91 4 -95 4 -2 7 11 8 29 l1 33 14 -32 c8 -18
19 -33 24 -33 12 0 11 88 -1 96 -5 2 -7 -15 -4 -38 l3 -43 -18 43 c-16 36 -27
50 -31 40z"/>
<path d="M713 1223 c-20 -7 -15 -37 8 -57 16 -14 19 -20 9 -29 -9 -9 -15 -7
-26 7 -12 17 -14 17 -14 4 0 -18 34 -33 50 -23 16 10 12 34 -10 52 -11 10 -20
21 -20 25 0 13 28 9 33 -4 4 -8 6 -7 6 3 1 18 -17 29 -36 22z"/>
<path d="M771 1173 c-13 -44 -14 -78 -2 -48 4 11 19 22 32 25 27 7 38 38 17
51 -25 16 -37 9 -47 -28z m49 7 c0 -13 -19 -22 -30 -15 -14 9 0 34 16 28 8 -3
14 -9 14 -13z"/>
<path d="M846 1155 c-9 -21 -16 -45 -15 -54 0 -9 9 6 20 33 11 27 18 51 15 53
-3 3 -12 -12 -20 -32z"/>
<path d="M873 1130 c-13 -21 -19 -41 -14 -44 5 -3 11 4 14 16 5 17 9 19 20 9
9 -6 13 -21 10 -34 -4 -18 -3 -19 6 -7 6 8 11 23 11 33 0 9 5 17 10 17 18 0
11 29 -9 40 -26 13 -23 15 -48 -30z m51 -1 c-5 -9 -34 -13 -34 -5 0 2 3 12 6
20 5 13 9 14 20 5 8 -6 11 -15 8 -20z"/>
<path d="M362 1130 c-25 -24 -25 -25 -12 -50 8 -14 4 -21 -16 -35 -14 -9 -32
-31 -39 -48 -16 -38 -2 -73 42 -106 15 -11 23 -21 17 -21 -6 0 -26 -33 -45
-72 -29 -64 -33 -83 -32 -153 0 -58 6 -96 22 -137 24 -62 94 -147 150 -183 58
-36 147 -57 216 -52 136 12 221 62 292 171 130 201 28 485 -199 552 -46 14
-162 21 -197 13 -11 -3 -14 7 -12 44 2 35 -2 54 -15 68 -24 27 -73 24 -106 -6
l-27 -25 -8 30 -8 31 -23 -21z"/>
<path d="M946 1097 c-31 -41 -32 -49 -6 -65 11 -7 20 -8 20 -3 0 5 -7 12 -16
15 -13 5 -14 9 -4 21 10 12 16 13 28 3 13 -11 14 -10 4 9 -17 31 -15 36 13 29
30 -8 33 -1 6 14 -17 8 -24 5 -45 -23z"/>
<path d="M1080 993 c-37 -26 -53 -43 -40 -43 6 0 25 13 43 30 36 33 34 39 -3
13z"/>
<path d="M190 965 c-15 -18 37 -60 56 -44 7 6 10 18 6 27 -5 14 -7 12 -12 -8
-4 -15 -9 -20 -13 -13 -4 6 -5 18 -1 26 7 19 -22 29 -36 12z m25 -4 c3 -5 1
-12 -5 -16 -5 -3 -10 1 -10 9 0 18 6 21 15 7z"/>
<path d="M1073 944 l-28 -26 29 17 c17 10 32 13 37 8 6 -6 -1 -15 -16 -23 -14
-7 -25 -17 -25 -22 0 -11 33 6 49 26 11 13 10 18 -2 31 -14 14 -19 12 -44 -11z"/>
<path d="M162 918 c-7 -7 -12 -17 -12 -23 0 -12 67 -51 75 -43 3 3 -11 13 -30
24 -33 18 -46 34 -26 34 21 0 41 -13 41 -26 0 -8 5 -14 10 -14 22 0 5 32 -26
48 -15 8 -24 8 -32 0z"/>
<path d="M1130 908 c0 -4 -12 -14 -27 -22 -16 -8 -23 -15 -16 -16 7 0 28 9 47
19 19 11 37 17 42 13 4 -4 4 -2 0 5 -7 13 -46 14 -46 1z"/>
<path d="M130 855 c-13 -15 -3 -45 15 -45 7 0 20 -3 28 -6 18 -7 31 24 17 41
-16 19 -48 25 -60 10z m49 -18 c6 -8 8 -16 5 -19 -9 -10 -42 3 -48 18 -7 18
28 19 43 1z"/>
<path d="M1114 854 c-18 -14 -18 -15 6 -8 14 4 31 7 38 7 6 0 12 4 12 9 0 14
-35 9 -56 -8z"/>
<path d="M1120 820 c-10 -6 -11 -14 -4 -29 8 -18 11 -19 42 -6 34 15 44 45 15
45 -15 0 -16 -2 -3 -10 8 -5 11 -12 7 -16 -4 -4 -15 0 -25 9 -11 10 -22 13
-32 7z m30 -20 c0 -5 -4 -10 -9 -10 -6 0 -13 5 -16 10 -3 6 1 10 9 10 9 0 16
-4 16 -10z"/>
<path d="M107 796 c-5 -11 1 -17 21 -22 15 -3 33 -7 40 -10 7 -2 10 1 7 6 -3
6 -15 10 -25 10 -10 0 -23 7 -28 16 -8 15 -10 15 -15 0z"/>
<path d="M1165 760 c-3 -11 -11 -20 -17 -20 -6 0 -7 8 -3 18 5 13 3 14 -6 5
-16 -16 -4 -44 16 -37 8 3 15 12 15 20 0 8 5 14 10 14 6 0 10 -5 10 -11 0 -5
5 -7 10 -4 8 5 7 11 -1 21 -16 19 -27 18 -34 -6z"/>
<path d="M128 746 c40 -19 42 -30 2 -22 -17 3 -30 1 -30 -4 0 -17 60 -11 67 5
7 21 3 24 -38 30 l-34 6 33 -15z"/>
<path d="M1200 720 c0 -6 -3 -9 -7 -9 -22 4 -53 -2 -53 -10 0 -8 76 2 86 11 3
3 -2 8 -11 11 -8 4 -15 2 -15 -3z"/>
<path d="M61 678 c0 -16 4 -28 12 -29 6 0 29 -2 50 -3 34 -2 37 0 36 23 -1 17
-3 20 -6 9 -5 -22 -33 -24 -33 -3 0 8 -4 15 -10 15 -5 0 -9 -5 -7 -12 1 -6 -6
-13 -15 -15 -11 -3 -18 4 -21 19 -4 20 -4 20 -6 -4z"/>
<path d="M1140 672 c0 -5 10 -8 23 -7 12 1 28 -2 35 -8 8 -7 12 -5 12 7 0 12
-9 16 -35 16 -19 0 -35 -4 -35 -8z"/>
<path d="M1145 631 c-3 -2 -5 -13 -5 -23 0 -14 7 -18 38 -16 36 1 36 1 5 5
-41 5 -43 23 -3 23 17 0 30 3 30 8 0 8 -58 11 -65 3z"/>
<path d="M99 589 c-6 -3 -9 -15 -7 -25 2 -16 9 -18 43 -13 l40 6 -37 2 c-37 1
-55 21 -20 21 9 0 24 5 32 10 11 7 8 9 -13 8 -15 -1 -33 -5 -38 -9z"/>
<path d="M1143 573 c-16 -6 -17 -30 -1 -39 7 -5 9 -2 5 9 -7 20 12 27 37 15
15 -8 16 -12 5 -19 -9 -6 -10 -9 -2 -9 16 0 27 20 17 30 -13 11 -47 19 -61 13z"/>
<path d="M120 529 c-22 -6 -21 -7 8 -6 19 1 35 4 37 8 5 8 -14 7 -45 -2z"/>
<path d="M1120 512 c0 -4 10 -8 23 -9 12 -1 35 -5 51 -9 25 -6 28 -5 16 7 -13
15 -90 24 -90 11z"/>
<path d="M151 477 c-28 -14 -34 -26 -22 -45 6 -11 14 -10 42 2 l34 15 -37 -5
c-46 -7 -51 10 -8 25 17 5 30 12 30 15 0 9 -13 7 -39 -7z"/>
<path d="M1107 471 c-3 -13 3 -22 20 -30 36 -16 52 -13 21 5 -31 16 -39 41
-10 29 40 -16 47 -16 28 -1 -27 22 -53 20 -59 -3z"/>
<path d="M1105 423 c11 -10 25 -24 31 -31 9 -10 13 -10 17 1 3 9 -8 20 -31 31
-36 17 -36 17 -17 -1z"/>
<path d="M169 412 c-29 -24 -20 -57 13 -47 33 10 51 35 37 52 -15 17 -22 17
-50 -5z m26 -28 c-10 -7 -22 -11 -26 -8 -16 9 -9 24 14 33 28 11 37 -7 12 -25z"/>
<path d="M1067 393 c-10 -10 -8 -33 3 -33 5 0 7 7 3 16 -4 12 -2 15 8 12 8 -3
13 -13 11 -23 -4 -19 16 -37 30 -29 17 11 7 41 -17 52 -30 14 -30 14 -38 5z
m53 -33 c0 -5 -5 -10 -11 -10 -5 0 -7 5 -4 10 3 6 8 10 11 10 2 0 4 -4 4 -10z"/>
<path d="M208 361 c-16 -9 -28 -20 -28 -25 0 -4 12 -1 26 9 14 9 28 14 31 11
9 -8 -17 -36 -33 -36 -8 0 -14 -7 -14 -15 0 -22 11 -18 42 13 21 22 24 30 15
43 -11 14 -15 14 -39 0z"/>
<path d="M247 312 c-22 -24 -22 -52 1 -51 10 0 12 3 5 6 -7 2 -13 12 -13 20 0
12 3 13 14 4 7 -6 22 -8 32 -4 18 6 18 6 2 -14 -24 -27 -22 -45 8 -66 28 -21
45 -13 66 27 10 20 9 20 -14 -1 -30 -28 -59 -32 -36 -5 28 33 31 47 5 23 -31
-28 -46 -22 -24 10 14 19 14 24 0 45 -18 29 -25 30 -46 6z m33 -12 c0 -5 -4
-10 -10 -10 -5 0 -10 5 -10 10 0 6 5 10 10 10 6 0 10 -4 10 -10z"/>
<path d="M1053 293 c21 -20 40 -34 43 -31 6 7 -57 68 -70 68 -5 0 7 -16 27
-37z"/>
<path d="M988 294 c-11 -10 5 -45 25 -56 16 -8 23 -7 34 8 11 15 10 20 -4 36
-16 17 -44 24 -55 12z m42 -19 c13 -15 5 -39 -11 -30 -5 4 -14 15 -19 26 -8
15 -7 19 3 19 8 0 20 -7 27 -15z"/>
<path d="M960 265 c0 -3 7 -17 16 -30 9 -14 12 -30 8 -37 -6 -10 -4 -10 9 0
15 13 15 16 -5 43 -21 29 -28 34 -28 24z"/>
<path d="M372 200 c-7 -12 -17 -18 -22 -15 -6 3 -10 2 -10 -3 0 -24 28 -18 44
9 19 32 8 41 -12 9z"/>
<path d="M835 209 c4 -6 0 -16 -10 -22 -13 -10 -14 -18 -6 -40 10 -25 38 -36
54 -21 7 8 -25 94 -36 94 -4 0 -5 -5 -2 -11z m20 -50 c4 -11 4 -23 2 -26 -9
-8 -24 5 -30 27 -7 27 20 27 28 -1z"/>
<path d="M873 204 c-7 -20 9 -36 38 -38 30 -1 38 -26 8 -26 -18 0 -20 -3 -11
-12 10 -10 16 -9 28 4 22 22 12 46 -21 50 -14 2 -24 8 -23 13 2 6 11 9 21 8
10 -2 15 2 12 7 -10 16 -45 12 -52 -6z"/>
<path d="M400 191 c-14 -28 -13 -48 5 -55 18 -7 50 37 41 59 -8 21 -33 19 -46
-4z m40 2 c-1 -5 -7 -19 -15 -33 -12 -22 -14 -23 -20 -7 -4 9 -2 24 5 32 13
16 30 20 30 8z"/>
<path d="M453 144 c-12 -24 -19 -44 -15 -44 9 0 39 20 30 20 -4 0 -2 14 4 31
16 46 5 43 -19 -7z"/>
<path d="M497 173 c-3 -5 -7 -21 -8 -38 -3 -24 0 -31 17 -33 16 -2 24 4 32 27
6 17 7 33 3 36 -5 2 -11 -9 -15 -25 -3 -17 -11 -30 -17 -30 -7 0 -9 12 -5 35
6 33 3 45 -7 28z"/>
<path d="M753 167 c-26 -10 -30 -15 -22 -29 5 -10 9 -24 8 -30 -3 -29 1 -42
11 -32 6 6 6 21 1 41 -12 42 -1 51 15 13 12 -28 44 -43 44 -20 0 5 -7 7 -15 4
-20 -8 -19 13 0 24 10 5 13 15 9 25 -7 19 -8 20 -51 4z m33 -24 c-10 -10 -19
5 -10 18 6 11 8 11 12 0 2 -7 1 -15 -2 -18z"/>
<path d="M557 131 c-4 -18 -7 -43 -6 -55 1 -11 5 -1 10 24 5 25 7 49 6 55 -2
5 -7 -5 -10 -24z"/>
<path d="M623 110 c0 -30 2 -43 4 -28 2 16 2 40 0 55 -2 16 -4 3 -4 -27z"/>
<path d="M646 135 c1 -11 3 -28 3 -37 1 -19 41 -26 41 -8 0 5 -7 7 -15 4 -8
-4 -15 -1 -15 5 0 7 7 14 15 17 8 4 15 15 15 25 0 14 -6 18 -23 17 -17 -2 -23
-8 -21 -23z m34 6 c0 -6 -4 -13 -10 -16 -5 -3 -10 1 -10 9 0 9 5 16 10 16 6 0
10 -4 10 -9z"/>
<path d="M704 132 c3 -19 7 -36 10 -40 9 -9 6 31 -5 53 -7 16 -8 13 -5 -13z"/>
</g>
</svg>
